<?xml version="1.0" encoding="utf-8"?>
<!-- Generator: Adobe Illustrator 23.0.3, SVG Export Plug-In . SVG Version: 6.00 Build 0)  -->
<svg version="1.1" id="Слой_1" xmlns="http://www.w3.org/2000/svg" xmlns:xlink="http://www.w3.org/1999/xlink" x="0px" y="0px"
	 viewBox="0 0 466.6 105.9" style="enable-background:new 0 0 466.6 105.9;" xml:space="preserve">
<style type="text/css">
	.st0{fill:#0085CA;stroke:#000000;stroke-width:5;stroke-miterlimit:10;}
	.st1{fill:#FFFFFF;stroke:#000000;stroke-width:5;stroke-miterlimit:10;}
	.st2{fill:none;stroke:#000000;stroke-width:6;stroke-miterlimit:10;}
	.st3{fill:#FFFFFF;}
</style>
<circle class="st0" cx="49" cy="56.9" r="46.5"/>
<polygon class="st1" points="102.7,6.4 102.7,94.4 22.3,94.4 "/>
<line class="st2" x1="56.5" y1="56.9" x2="102.6" y2="56.9"/>
<g>
	<path class="st3" d="M138.3,76.8v1.7h-5v9.9h-2.1V76.8H138.3z"/>
	<path class="st3" d="M143.7,76.8v4.9c0,1.8,0,3-0.1,4.7l0.1,0c0.7-1.4,1.1-2.2,1.9-3.6l3.6-6h2.5v11.6h-2v-4.9
		c0-1.9,0.1-2.9,0.1-4.8h-0.1c-0.7,1.5-1.3,2.4-1.9,3.6c-1.1,1.8-2.4,4-3.6,6.1h-2.4V76.8H143.7z"/>
	<path class="st3" d="M165.5,76.8v10l1.2,0l-0.1,5.3h-1.7l-0.1-3.7h-8l-0.1,3.7H155l-0.1-5.3l1,0c0.5-0.7,0.9-1.5,1.1-2.4
		c0.5-1.4,0.7-3,0.7-4.6v-3C157.7,76.8,165.5,76.8,165.5,76.8z M159.6,80.4c0,1.5-0.2,3-0.6,4.3c-0.2,0.8-0.6,1.5-0.9,2.2h5.4v-8.4
		h-3.8L159.6,80.4L159.6,80.4z"/>
	<path class="st3" d="M170.7,80.6c0-1.5-0.1-2.7-0.1-3.8h1.9l0.1,2h0.1c0.9-1.4,2.2-2.3,4.1-2.3c2.8,0,4.9,2.4,4.9,5.9
		c0,4.2-2.5,6.2-5.3,6.2c-1.5,0-2.9-0.7-3.6-1.8h-0.1v6.3h-2.1V80.6z M172.8,83.7c0,0.3,0.1,0.6,0.1,0.9c0.4,1.5,1.7,2.5,3.2,2.5
		c2.2,0,3.5-1.8,3.5-4.5c0-2.3-1.2-4.3-3.5-4.3c-1.4,0-2.8,1-3.2,2.6c-0.1,0.3-0.1,0.6-0.1,0.9L172.8,83.7L172.8,83.7z"/>
	<path class="st3" d="M192.2,88.4L192,87h-0.1c-0.6,0.9-1.9,1.7-3.6,1.7c-2.4,0-3.6-1.7-3.6-3.3c0-2.8,2.5-4.3,7-4.3v-0.2
		c0-1-0.3-2.7-2.6-2.7c-1.1,0-2.2,0.3-3,0.9l-0.5-1.4c1-0.6,2.4-1,3.8-1c3.6,0,4.4,2.4,4.4,4.8v4.3c0,1,0.1,2,0.2,2.8L192.2,88.4
		L192.2,88.4z M191.9,82.5c-2.3-0.1-4.9,0.4-4.9,2.6c0,1.4,0.9,2,2,2c1.5,0,2.5-1,2.8-1.9c0.1-0.2,0.1-0.5,0.1-0.7V82.5z"/>
	<path class="st3" d="M198.7,77c0.8-0.1,2.3-0.3,3.7-0.3c1.9,0,5.2,0.3,5.2,2.9c0,1.4-1.1,2.3-2.4,2.6v0.1c1.7,0.2,2.9,1.2,2.9,2.9
		c0,3.1-3.8,3.4-6.1,3.4c-1.3,0-2.6-0.1-3.3-0.1L198.7,77L198.7,77z M200.7,87.1c0.6,0.1,1,0.1,1.7,0.1c1.4,0,3.5-0.3,3.5-2
		s-1.7-2-3.7-2h-1.5L200.7,87.1L200.7,87.1z M200.7,81.7h1.6c1.6,0,3.2-0.5,3.2-1.8c0-1.2-1-1.7-3.1-1.7c-0.7,0-1.1,0.1-1.6,0.1
		V81.7z"/>
	<path class="st3" d="M221.1,76.8v11.6H219v-10h-4v3c0,3.3-0.3,5.4-1.8,6.4c-0.6,0.5-1.2,0.7-2.3,0.7l-0.2-1.7
		c0.4-0.1,0.9-0.2,1.1-0.5c1.1-0.8,1.2-2.4,1.2-5v-4.7L221.1,76.8L221.1,76.8z"/>
	<path class="st3" d="M227.9,76.8v4.9c0,1.8,0,3-0.1,4.7l0.1,0c0.7-1.4,1.1-2.2,1.9-3.6l3.6-6h2.5v11.6h-2v-4.9
		c0-1.9,0.1-2.9,0.1-4.8h-0.1c-0.7,1.5-1.3,2.4-1.9,3.6c-1.1,1.8-2.4,4-3.6,6.1h-2.4V76.8H227.9z"/>
	<path class="st3" d="M242.4,76.8v3.8c0,1.5,0.6,2.5,2.4,2.5c0.9,0,1.9-0.3,2.5-0.8v-5.5h2.1v11.6h-2.1v-4.7h-0.1
		c-0.8,0.5-2,0.9-3.1,0.9c-2.2,0-3.8-1.1-3.8-3.8v-4.1C240.3,76.8,242.4,76.8,242.4,76.8z"/>
	<path class="st3" d="M255.4,83c0.1,2.9,1.9,4,4,4c1.5,0,2.4-0.3,3.2-0.6L263,88c-0.7,0.3-2,0.7-3.9,0.7c-3.6,0-5.7-2.3-5.7-5.9
		c0-3.5,2.1-6.3,5.5-6.3c3.8,0,4.8,3.3,4.8,5.5c0,0.4,0,0.8-0.1,1L255.4,83L255.4,83z M261.6,81.5c0-1.3-0.5-3.4-2.9-3.4
		c-2.1,0-3.1,2-3.2,3.4H261.6z"/>
	<path class="st3" d="M276,88c-0.5,0.3-1.8,0.7-3.3,0.7c-3.5,0-5.8-2.4-5.8-5.9c0-3.6,2.5-6.2,6.2-6.2c1.3,0,2.4,0.3,2.9,0.6
		l-0.5,1.6c-0.5-0.3-1.3-0.6-2.4-0.6c-2.7,0-4.1,2-4.1,4.4c0,2.7,1.7,4.3,4,4.3c1.2,0,2-0.3,2.6-0.6L276,88z"/>
	<path class="st3" d="M282,76.8v5h0.5l4.4-5h2.6l-5.1,5.3c1.9,0.2,3,1.4,3.9,3.5c0.3,0.8,0.7,1.9,1.3,2.8h-2.2
		c-0.3-0.5-0.7-1.4-1.1-2.4c-0.8-1.9-1.9-2.7-3.8-2.7H282v5.1h-2.1V76.8H282z"/>
	<path class="st3" d="M294.8,76.8v4.9c0,1.8,0,3-0.1,4.7l0.1,0c0.7-1.4,1.1-2.2,1.9-3.6l3.6-6h2.5v11.6h-2v-4.9c0-1.9,0-2.9,0.1-4.8
		h-0.1c-0.7,1.5-1.3,2.4-1.9,3.6c-1.1,1.8-2.4,4-3.6,6.1h-2.4V76.8H294.8z"/>
	<path class="st3" d="M308.8,83c0,2.9,1.9,4,4,4c1.5,0,2.4-0.3,3.2-0.6l0.4,1.5c-0.7,0.3-2,0.7-3.9,0.7c-3.6,0-5.7-2.3-5.7-5.9
		c0-3.5,2.1-6.3,5.5-6.3c3.8,0,4.8,3.3,4.8,5.5c0,0.4,0,0.8-0.1,1L308.8,83L308.8,83z M315,81.5c0-1.3-0.5-3.4-2.9-3.4
		c-2.1,0-3.1,2-3.2,3.4H315z"/>
	<path class="st3" d="M329.7,76.8v5h0.5l4.4-5h2.6l-5.1,5.3c1.9,0.2,3,1.4,3.9,3.5c0.3,0.8,0.7,1.9,1.3,2.8H335
		c-0.3-0.5-0.7-1.4-1.1-2.4c-0.8-1.9-1.9-2.7-3.8-2.7h-0.4v5.1h-2.1V76.8H329.7z"/>
	<path class="st3" d="M350.9,82.5c0,4.3-3,6.2-5.8,6.2c-3.1,0-5.6-2.3-5.6-6c0-3.9,2.5-6.2,5.8-6.2C348.6,76.6,350.9,79,350.9,82.5z
		 M341.7,82.7c0,2.5,1.5,4.5,3.5,4.5c2,0,3.5-1.9,3.5-4.5c0-2-1-4.5-3.5-4.5S341.7,80.5,341.7,82.7z"/>
	<path class="st3" d="M355.1,76.8h2.6l2.1,5.9c0.3,0.9,0.8,2.3,1.1,3.2h0c0.3-0.9,0.9-2.7,1.4-4l1.9-5.1h2.6l0.8,11.6h-2l-0.3-5.5
		c-0.1-1.3-0.2-2.7-0.2-4.2H365c-0.3,1.1-0.6,2-1.3,3.8l-2.2,5.9H360l-2.1-5.7c-0.4-1.1-0.9-2.8-1.1-3.9h-0.1c0,1.4-0.1,2.9-0.2,4.2
		l-0.3,5.5h-1.9L355.1,76.8z"/>
	<path class="st3" d="M381.3,76.8v11.6h-2.1v-9.9h-5.4v9.9h-2.1V76.8H381.3z"/>
	<path class="st3" d="M396.7,82.5c0,4.3-3,6.2-5.8,6.2c-3.1,0-5.6-2.3-5.6-6c0-3.9,2.5-6.2,5.8-6.2C394.4,76.6,396.7,79,396.7,82.5z
		 M387.5,82.7c0,2.5,1.5,4.5,3.5,4.5c2,0,3.5-1.9,3.5-4.5c0-2-1-4.5-3.5-4.5S387.5,80.5,387.5,82.7z"/>
	<path class="st3" d="M402.8,76.8v4.7h5.5v-4.7h2.1v11.6h-2.1v-5.3h-5.5v5.3h-2.1V76.8H402.8z"/>
	<path class="st3" d="M416.5,83c0,2.9,1.9,4,4,4c1.5,0,2.4-0.3,3.2-0.6l0.4,1.5c-0.7,0.3-2,0.7-3.9,0.7c-3.6,0-5.7-2.3-5.7-5.9
		c0-3.5,2.1-6.3,5.5-6.3c3.8,0,4.8,3.3,4.8,5.5c0,0.4,0,0.8-0.1,1L416.5,83L416.5,83z M422.7,81.5c0-1.3-0.5-3.4-2.9-3.4
		c-2.1,0-3.1,2-3.2,3.4H422.7z"/>
	<path class="st3" d="M430.8,76.8v4.7h5.5v-4.7h2.1v11.6h-2.1v-5.3h-5.5v5.3h-2.1V76.8H430.8z"/>
	<path class="st3" d="M451.1,76.8v1.7h-3.6v9.9h-2.1v-9.9h-3.6v-1.7H451.1z"/>
	<path class="st3" d="M456.5,76.8v4c0.5-0.1,1.1-0.1,1.9-0.1c2.5,0,5,1,5,3.9c0,1.2-0.5,2.1-1.2,2.7c-1.3,1.1-3.1,1.3-4.7,1.3
		c-1.2,0-2.3-0.1-3.1-0.2V76.8H456.5z M456.5,87c0.4,0.1,0.9,0.1,1.5,0.1c1.6,0,3.4-0.7,3.4-2.5c0-1.9-1.7-2.4-3.3-2.4
		c-0.6,0-1.1,0.1-1.6,0.1L456.5,87L456.5,87z M466.9,76.8v11.6h-2.1V76.8H466.9z"/>
</g>
<g>
	<path class="st3" d="M153,17.2l6.8,45.9h-12.2l-0.6-8.2h-4.3L142,63h-12.3l6.1-45.9H153z M146.7,46.7c-0.6-5.2-1.2-11.6-1.8-19.3
		c-1.2,8.8-2,15.2-2.3,19.3H146.7z"/>
	<path class="st3" d="M178.9,63V33.3h-4v19c0,3.5-0.4,5.9-1.2,7.4c-0.8,1.5-2,2.4-3.8,2.8c-1.7,0.4-4.5,0.6-8.4,0.6h-1.9v-6.1
		c1.5,0,2.5-0.2,3-0.6c0.5-0.3,0.8-1.6,0.8-3.7V25.5h26.8V63H178.9z"/>
	<path class="st3" d="M222.4,63h-10V42.7l-8,20.3H194V25.5h10v20.1l7.8-20.1h10.6V63z"/>
	<path class="st3" d="M238.1,25.5l-0.2,3.3c1-1.3,2.1-2.3,3.4-3c1.2-0.7,2.6-1,4-1c1.8,0,3.3,0.5,4.6,1.4c1.3,1,2.1,2.1,2.4,3.3
		s0.5,3.4,0.5,6.3v15.8c0,3.4-0.2,5.8-0.6,7.3c-0.4,1.4-1.2,2.6-2.5,3.5c-1.3,0.9-2.8,1.3-4.5,1.3c-1.4,0-2.7-0.3-3.9-1
		c-1.2-0.7-2.3-1.6-3.3-3v8.6h-11.4V25.5H238.1z M241.4,36.4c0-2.3-0.1-3.7-0.3-4.2c-0.2-0.5-0.6-0.7-1.4-0.7
		c-0.8,0-1.2,0.3-1.5,0.8c-0.2,0.6-0.3,1.9-0.3,4.1V52c0,2.3,0.1,3.7,0.3,4.2s0.7,0.8,1.5,0.8c0.7,0,1.2-0.3,1.4-0.8
		c0.2-0.5,0.3-1.8,0.3-3.8V36.4z"/>
	<path class="st3" d="M266.8,40h-10.7v-2.5c0-2.9,0.3-5.1,1-6.7c0.7-1.6,2-3,4-4.2c2-1.2,4.6-1.8,7.9-1.8c3.9,0,6.8,0.7,8.8,2.1
		c2,1.4,3.1,3,3.5,5c0.4,2,0.6,6.1,0.6,12.3V63h-11.1v-3.3c-0.7,1.3-1.6,2.4-2.7,3c-1.1,0.7-2.4,1-4,1c-2,0-3.8-0.6-5.5-1.7
		c-1.7-1.1-2.5-3.6-2.5-7.4v-3.1c0-2.8,0.4-4.7,1.3-5.7s3.1-2.2,6.6-3.6c3.8-1.5,5.8-2.5,6-3s0.4-1.5,0.4-3.1c0-2-0.1-3.2-0.4-3.8
		c-0.3-0.6-0.8-0.9-1.5-0.9c-0.8,0-1.3,0.3-1.4,0.8c-0.2,0.5-0.3,1.8-0.3,3.9V40z M270.4,45.2c-1.8,1.3-2.9,2.5-3.2,3.4
		c-0.3,0.9-0.4,2.2-0.4,3.9c0,1.9,0.1,3.2,0.4,3.8c0.3,0.6,0.8,0.8,1.5,0.8c0.7,0,1.2-0.2,1.4-0.7c0.2-0.4,0.3-1.6,0.3-3.5V45.2z"/>
	<path class="st3" d="M314,37.2H302v-8c0-2.3-0.1-3.8-0.4-4.3c-0.3-0.6-0.8-0.9-1.7-0.9c-1,0-1.6,0.3-1.9,1
		c-0.3,0.7-0.4,2.2-0.4,4.5v21.3c0,2.2,0.1,3.7,0.4,4.4s0.9,1,1.8,1c0.9,0,1.5-0.3,1.7-1c0.3-0.7,0.4-2.3,0.4-4.8v-5.8H314v1.8
		c0,4.7-0.3,8.1-1,10.1c-0.7,2-2.2,3.7-4.4,5.2c-2.3,1.5-5.1,2.2-8.5,2.2c-3.5,0-6.4-0.6-8.6-1.9s-3.8-3-4.5-5.3
		c-0.7-2.2-1.1-5.6-1.1-10.1V33.4c0-3.3,0.1-5.8,0.3-7.4c0.2-1.7,0.9-3.2,2-4.8c1.1-1.5,2.7-2.7,4.7-3.6c2-0.9,4.3-1.3,6.9-1.3
		c3.5,0,6.4,0.7,8.7,2c2.3,1.4,3.8,3,4.5,5.1s1.1,5.2,1.1,9.5V37.2z"/>
	<path class="st3" d="M343.8,44.9H329V53c0,1.7,0.1,2.8,0.4,3.3c0.2,0.5,0.7,0.7,1.4,0.7c0.9,0,1.4-0.3,1.7-1
		c0.3-0.7,0.4-1.9,0.4-3.8v-5h10.8v2.8c0,2.3-0.1,4.1-0.4,5.4c-0.3,1.2-1,2.6-2.1,4s-2.4,2.5-4.1,3.2c-1.7,0.7-3.7,1.1-6.2,1.1
		c-2.4,0-4.5-0.3-6.4-1s-3.3-1.7-4.3-2.9c-1-1.2-1.7-2.6-2.1-4c-0.4-1.5-0.6-3.6-0.6-6.4v-11c0-3.3,0.4-5.9,1.3-7.8s2.3-3.4,4.4-4.4
		c2-1,4.3-1.5,7-1.5c3.2,0,5.9,0.6,7.9,1.8c2.1,1.2,3.5,2.8,4.4,4.8c0.8,2,1.3,4.8,1.3,8.5V44.9z M332.3,38.8v-2.7
		c0-1.9-0.1-3.2-0.3-3.8s-0.6-0.8-1.3-0.8c-0.8,0-1.3,0.2-1.5,0.7s-0.3,1.8-0.3,3.9v2.7H332.3z"/>
	<path class="st3" d="M359.2,25.5l-0.2,3.3c1-1.3,2.1-2.3,3.4-3c1.2-0.7,2.6-1,4-1c1.8,0,3.3,0.5,4.6,1.4c1.3,1,2.1,2.1,2.4,3.3
		s0.5,3.4,0.5,6.3v15.8c0,3.4-0.2,5.8-0.6,7.3c-0.4,1.4-1.2,2.6-2.5,3.5c-1.3,0.9-2.8,1.3-4.5,1.3c-1.4,0-2.7-0.3-3.9-1
		c-1.2-0.7-2.3-1.6-3.3-3v8.6h-11.4V25.5H359.2z M362.5,36.4c0-2.3-0.1-3.7-0.3-4.2c-0.2-0.5-0.6-0.7-1.4-0.7
		c-0.8,0-1.2,0.3-1.5,0.8c-0.2,0.6-0.3,1.9-0.3,4.1V52c0,2.3,0.1,3.7,0.3,4.2s0.7,0.8,1.5,0.8c0.7,0,1.2-0.3,1.4-0.8
		c0.2-0.5,0.3-1.8,0.3-3.8V36.4z"/>
	<path class="st3" d="M404.2,53.1c0,3.8-0.8,6.4-2.5,7.8c-1.7,1.4-5.3,2.1-10.9,2.1h-13.1V25.5h13.5c4.6,0,7.8,0.8,9.6,2.3
		c1.7,1.5,2.6,4.1,2.6,7.8c0,4.2-2.2,6.7-6.6,7.3c2.3,0.4,4.1,1.3,5.5,2.7c1.3,1.4,2,3.2,2,5.4V53.1z M389,39.4
		c1.7,0,2.8-0.2,3.2-0.7c0.4-0.4,0.6-1.3,0.6-2.6c0-1.1-0.2-1.8-0.7-2.2c-0.4-0.4-1.5-0.6-3.1-0.6V39.4z M392.8,51.4v-1.3
		c0-1.6-0.2-2.6-0.7-3c-0.4-0.4-1.5-0.6-3.1-0.6v8.7c1.5,0,2.5-0.2,3-0.7C392.5,54,392.8,53,392.8,51.4z"/>
	<path class="st3" d="M435.8,63h-10V42.7l-8,20.3h-10.4V25.5h10v20.1l7.8-20.1h10.6V63z"/>
	<path class="st3" d="M465.2,39.7h-10.8v-4.3c0-1.5-0.1-2.5-0.4-3.1s-0.7-0.8-1.4-0.8s-1.1,0.2-1.3,0.7c-0.2,0.5-0.3,1.5-0.3,3.2V53
		c0,1.3,0.2,2.3,0.5,3c0.3,0.7,0.8,1,1.5,1c0.8,0,1.3-0.3,1.6-1c0.3-0.7,0.4-2,0.4-4v-4.5h10.2c0,3-0.1,5.3-0.3,6.8
		c-0.2,1.5-0.8,3-1.9,4.6c-1.1,1.6-2.5,2.8-4.2,3.6c-1.7,0.8-3.8,1.2-6.4,1.2c-3.2,0-5.8-0.6-7.7-1.7c-1.9-1.1-3.2-2.7-4-4.6
		c-0.8-2-1.2-4.8-1.2-8.5V38.3c0-3.2,0.3-5.6,1-7.2c0.6-1.6,2-3.1,4.1-4.3s4.6-1.9,7.6-1.9c3,0,5.5,0.6,7.6,1.9
		c2.1,1.3,3.5,2.9,4.2,4.8S465.2,36.1,465.2,39.7z"/>
</g>
</svg>
