<?xml version="1.0" encoding="utf-8"?>
<!-- Generator: Adobe Illustrator 23.0.3, SVG Export Plug-In . SVG Version: 6.00 Build 0)  -->
<svg version="1.1" id="Слой_1" xmlns="http://www.w3.org/2000/svg" xmlns:xlink="http://www.w3.org/1999/xlink" x="0px" y="0px"
	 viewBox="0 0 466.6 105.9" style="enable-background:new 0 0 466.6 105.9;" xml:space="preserve">
<style type="text/css">
	.st0{fill:#0085CA;stroke:#000000;stroke-width:5;stroke-miterlimit:10;}
	.st1{fill:#FFFFFF;stroke:#000000;stroke-width:5;stroke-miterlimit:10;}
	.st2{fill:none;stroke:#000000;stroke-width:6;stroke-miterlimit:10;}
	.st3{fill:#0085CA;}
</style>
<circle class="st0" cx="49" cy="56.9" r="46.5"/>
<polygon class="st1" points="102.7,6.4 102.7,94.4 22.3,94.4 "/>
<line class="st2" x1="56.5" y1="56.9" x2="102.6" y2="56.9"/>
<g>
	<path class="st3" d="M139.6,46.7l-4.2,12.7H130L143.7,19h6.3l13.8,40.4h-5.6l-4.3-12.7H139.6z M152.9,42.6l-4-11.6
		c-0.9-2.6-1.5-5-2.1-7.4h-0.1c-0.6,2.4-1.3,4.9-2,7.3l-4,11.7H152.9z"/>
	<path class="st3" d="M191.4,30.4v29h-5.2V34.5h-10v7.6c0,8.2-0.8,13.6-4.6,16.1c-1.4,1.1-3.1,1.8-5.8,1.8l-0.5-4.1
		c1-0.2,2.2-0.6,2.9-1.2c2.7-2,3-6.1,3-12.5V30.4C171.3,30.4,191.4,30.4,191.4,30.4z"/>
	<path class="st3" d="M203.6,30.4v12.2c0,4.6-0.1,7.5-0.3,11.6l0.2,0.1c1.7-3.5,2.8-5.6,4.7-8.9l9.1-15h6.2v29h-5V47.1
		c0-4.7,0.1-7.2,0.4-11.9h-0.2c-1.9,3.7-3.1,6.1-4.8,9c-2.8,4.5-5.9,10.1-9.1,15.2h-6.1v-29H203.6z"/>
	<path class="st3" d="M230.7,39.9c0-3.7-0.1-6.7-0.2-9.5h4.7l0.2,5h0.1c2.2-3.5,5.6-5.6,10.3-5.6c7,0,12.3,5.9,12.3,14.8
		c0,10.4-6.4,15.6-13.2,15.6c-3.8,0-7.2-1.7-8.9-4.6h-0.1v15.8h-5.2V39.9z M235.9,47.6c0,0.8,0.1,1.5,0.2,2.2c1,3.7,4.1,6.2,7.9,6.2
		c5.6,0,8.8-4.6,8.8-11.2c0-5.8-3.1-10.8-8.6-10.8c-3.6,0-7,2.6-8,6.5c-0.2,0.7-0.4,1.4-0.4,2.2L235.9,47.6L235.9,47.6z"/>
	<path class="st3" d="M279.6,59.4l-0.4-3.7H279c-1.6,2.3-4.7,4.3-8.9,4.3c-5.9,0-8.9-4.1-8.9-8.3c0-7,6.2-10.9,17.5-10.8v-0.6
		c0-2.4-0.7-6.7-6.6-6.7c-2.7,0-5.5,0.8-7.6,2.2l-1.2-3.5c2.4-1.6,5.9-2.6,9.5-2.6c8.9,0,11,6.1,11,11.9v10.9c0,2.5,0.1,5,0.5,7
		C284.4,59.4,279.6,59.4,279.6,59.4z M278.8,44.6c-5.8-0.1-12.3,0.9-12.3,6.5c0,3.4,2.3,5,5,5c3.8,0,6.2-2.4,7-4.9
		c0.2-0.5,0.3-1.1,0.3-1.7L278.8,44.6L278.8,44.6z"/>
	<path class="st3" d="M319.5,58.1c-1.9,1-5.8,1.9-10.7,1.9c-11.4,0-20-7.2-20-20.5c0-12.7,8.6-21.2,21.1-21.2c5,0,8.2,1.1,9.6,1.8
		l-1.3,4.3c-2-1-4.8-1.7-8.2-1.7c-9.5,0-15.8,6.1-15.8,16.7c0,9.9,5.7,16.3,15.5,16.3c3.2,0,6.4-0.7,8.5-1.7L319.5,58.1z"/>
	<path class="st3" d="M326.6,45.9c0.1,7.1,4.7,10.1,10,10.1c3.8,0,6.1-0.7,8-1.5l0.9,3.8c-1.9,0.8-5,1.8-9.7,1.8
		c-8.9,0-14.3-5.9-14.3-14.6s5.2-15.7,13.6-15.7c9.5,0,12,8.3,12,13.7c0,1.1-0.1,1.9-0.2,2.5C347,45.9,326.6,45.9,326.6,45.9z
		 M342,42.1c0.1-3.4-1.4-8.6-7.3-8.6c-5.3,0-7.7,4.9-8.1,8.6H342z"/>
	<path class="st3" d="M352.4,39.9c0-3.7-0.1-6.7-0.2-9.5h4.7l0.2,5h0.1c2.2-3.5,5.6-5.6,10.3-5.6c7,0,12.3,5.9,12.3,14.8
		c0,10.4-6.4,15.6-13.2,15.6c-3.8,0-7.2-1.7-8.9-4.6h-0.1v15.8h-5.2L352.4,39.9L352.4,39.9z M357.6,47.6c0,0.8,0.1,1.5,0.2,2.2
		c1,3.7,4.1,6.2,7.9,6.2c5.6,0,8.8-4.6,8.8-11.2c0-5.8-3.1-10.8-8.6-10.8c-3.6,0-7,2.6-8,6.5c-0.2,0.7-0.4,1.4-0.4,2.2V47.6z"/>
	<path class="st3" d="M385,30.8c2-0.4,5.8-0.7,9.2-0.7c4.9,0,12.9,0.8,12.9,7.3c0,3.6-2.8,5.8-6.1,6.5V44c4.3,0.6,7.4,3,7.4,7.2
		c0,7.6-9.6,8.6-15.3,8.6c-3.2,0-6.6-0.2-8.2-0.4V30.8z M390,56c1.5,0.2,2.6,0.2,4.3,0.2c3.5,0,8.8-0.8,8.8-5s-4.2-5.1-9.2-5.1H390
		L390,56L390,56z M390.1,42.6h4c3.9,0,7.9-1.1,7.9-4.6c0-2.9-2.5-4.3-7.8-4.3c-1.7,0-2.8,0.1-4.1,0.2L390.1,42.6L390.1,42.6z"/>
	<path class="st3" d="M418.7,30.4v12.2c0,4.6-0.1,7.5-0.3,11.6l0.2,0.1c1.7-3.5,2.8-5.6,4.7-8.9l9.1-15h6.2v29h-5V47.1
		c0-4.7,0.1-7.2,0.4-11.9h-0.2c-1.9,3.7-3.1,6.1-4.8,9c-2.8,4.5-5.9,10.1-9.1,15.2h-6.1v-29H418.7z"/>
	<path class="st3" d="M466.5,58.4c-1.4,0.7-4.4,1.7-8.3,1.7c-8.8,0-14.5-5.9-14.5-14.8c0-8.9,6.1-15.4,15.6-15.4
		c3.1,0,5.9,0.8,7.3,1.5l-1.2,4.1c-1.3-0.7-3.2-1.4-6.1-1.4c-6.7,0-10.3,4.9-10.3,11c0,6.7,4.3,10.9,10.1,10.9c3,0,5-0.8,6.5-1.4
		L466.5,58.4z"/>
</g>
<g>
	<path d="M137.3,76.8v1.7h-5v9.9h-2.1V76.8H137.3z"/>
	<path d="M142.7,76.8v4.9c0,1.8,0,3-0.1,4.7l0.1,0c0.7-1.4,1.1-2.2,1.9-3.6l3.6-6h2.5v11.6h-2v-4.9c0-1.9,0.1-2.9,0.1-4.8h-0.1
		c-0.7,1.5-1.3,2.4-1.9,3.6c-1.1,1.8-2.4,4-3.6,6.1h-2.4V76.8H142.7z"/>
	<path d="M164.5,76.8v10l1.2,0l-0.1,5.3h-1.7l-0.1-3.7h-8l-0.1,3.7H154l-0.1-5.3l1,0c0.5-0.7,0.9-1.5,1.1-2.4c0.5-1.4,0.7-3,0.7-4.6
		v-3C156.7,76.8,164.5,76.8,164.5,76.8z M158.6,80.4c0,1.5-0.2,3-0.6,4.3c-0.2,0.8-0.6,1.5-0.9,2.2h5.4v-8.4h-3.8L158.6,80.4
		L158.6,80.4z"/>
	<path d="M169.7,80.6c0-1.5-0.1-2.7-0.1-3.8h1.9l0.1,2h0.1c0.9-1.4,2.2-2.3,4.1-2.3c2.8,0,4.9,2.4,4.9,5.9c0,4.2-2.5,6.2-5.3,6.2
		c-1.5,0-2.9-0.7-3.6-1.8h-0.1v6.3h-2.1V80.6z M171.8,83.7c0,0.3,0.1,0.6,0.1,0.9c0.4,1.5,1.7,2.5,3.2,2.5c2.2,0,3.5-1.8,3.5-4.5
		c0-2.3-1.2-4.3-3.5-4.3c-1.4,0-2.8,1-3.2,2.6c-0.1,0.3-0.1,0.6-0.1,0.9L171.8,83.7L171.8,83.7z"/>
	<path d="M191.2,88.4L191,87h-0.1c-0.6,0.9-1.9,1.7-3.6,1.7c-2.4,0-3.6-1.7-3.6-3.3c0-2.8,2.5-4.3,7-4.3v-0.2c0-1-0.3-2.7-2.6-2.7
		c-1.1,0-2.2,0.3-3,0.9l-0.5-1.4c1-0.6,2.4-1,3.8-1c3.6,0,4.4,2.4,4.4,4.8v4.3c0,1,0.1,2,0.2,2.8L191.2,88.4L191.2,88.4z
		 M190.9,82.5c-2.3-0.1-4.9,0.4-4.9,2.6c0,1.4,0.9,2,2,2c1.5,0,2.5-1,2.8-1.9c0.1-0.2,0.1-0.5,0.1-0.7V82.5z"/>
	<path d="M197.7,77c0.8-0.1,2.3-0.3,3.7-0.3c1.9,0,5.2,0.3,5.2,2.9c0,1.4-1.1,2.3-2.4,2.6v0.1c1.7,0.2,2.9,1.2,2.9,2.9
		c0,3.1-3.8,3.4-6.1,3.4c-1.3,0-2.6-0.1-3.3-0.1L197.7,77L197.7,77z M199.7,87.1c0.6,0.1,1,0.1,1.7,0.1c1.4,0,3.5-0.3,3.5-2
		s-1.7-2-3.7-2h-1.5L199.7,87.1L199.7,87.1z M199.7,81.7h1.6c1.6,0,3.2-0.5,3.2-1.8c0-1.2-1-1.7-3.1-1.7c-0.7,0-1.1,0.1-1.6,0.1
		V81.7z"/>
	<path d="M220.1,76.8v11.6H218v-10h-4v3c0,3.3-0.3,5.4-1.8,6.4c-0.6,0.5-1.2,0.7-2.3,0.7l-0.2-1.7c0.4-0.1,0.9-0.2,1.1-0.5
		c1.1-0.8,1.2-2.4,1.2-5v-4.7L220.1,76.8L220.1,76.8z"/>
	<path d="M226.9,76.8v4.9c0,1.8,0,3-0.1,4.7l0.1,0c0.7-1.4,1.1-2.2,1.9-3.6l3.6-6h2.5v11.6h-2v-4.9c0-1.9,0.1-2.9,0.1-4.8h-0.1
		c-0.7,1.5-1.3,2.4-1.9,3.6c-1.1,1.8-2.4,4-3.6,6.1h-2.4V76.8H226.9z"/>
	<path d="M241.4,76.8v3.8c0,1.5,0.6,2.5,2.4,2.5c0.9,0,1.9-0.3,2.5-0.8v-5.5h2.1v11.6h-2.1v-4.7h-0.1c-0.8,0.5-2,0.9-3.1,0.9
		c-2.2,0-3.8-1.1-3.8-3.8v-4.1C239.3,76.8,241.4,76.8,241.4,76.8z"/>
	<path d="M254.4,83c0.1,2.9,1.9,4,4,4c1.5,0,2.4-0.3,3.2-0.6L262,88c-0.7,0.3-2,0.7-3.9,0.7c-3.6,0-5.7-2.3-5.7-5.9
		c0-3.5,2.1-6.3,5.5-6.3c3.8,0,4.8,3.3,4.8,5.5c0,0.4,0,0.8-0.1,1L254.4,83L254.4,83z M260.6,81.5c0-1.3-0.5-3.4-2.9-3.4
		c-2.1,0-3.1,2-3.2,3.4H260.6z"/>
	<path d="M275,88c-0.5,0.3-1.8,0.7-3.3,0.7c-3.5,0-5.8-2.4-5.8-5.9c0-3.6,2.5-6.2,6.2-6.2c1.3,0,2.4,0.3,2.9,0.6l-0.5,1.6
		c-0.5-0.3-1.3-0.6-2.4-0.6c-2.7,0-4.1,2-4.1,4.4c0,2.7,1.7,4.3,4,4.3c1.2,0,2-0.3,2.6-0.6L275,88z"/>
	<path d="M281,76.8v5h0.5l4.4-5h2.6l-5.1,5.3c1.9,0.2,3,1.4,3.9,3.5c0.3,0.8,0.7,1.9,1.3,2.8h-2.2c-0.3-0.5-0.7-1.4-1.1-2.4
		c-0.8-1.9-1.9-2.7-3.8-2.7H281v5.1h-2.1V76.8H281z"/>
	<path d="M293.8,76.8v4.9c0,1.8,0,3-0.1,4.7l0.1,0c0.7-1.4,1.1-2.2,1.9-3.6l3.6-6h2.5v11.6h-2v-4.9c0-1.9,0-2.9,0.1-4.8h-0.1
		c-0.7,1.5-1.3,2.4-1.9,3.6c-1.1,1.8-2.4,4-3.6,6.1h-2.4V76.8H293.8z"/>
	<path d="M307.8,83c0,2.9,1.9,4,4,4c1.5,0,2.4-0.3,3.2-0.6l0.4,1.5c-0.7,0.3-2,0.7-3.9,0.7c-3.6,0-5.7-2.3-5.7-5.9
		c0-3.5,2.1-6.3,5.5-6.3c3.8,0,4.8,3.3,4.8,5.5c0,0.4,0,0.8-0.1,1L307.8,83L307.8,83z M314,81.5c0-1.3-0.5-3.4-2.9-3.4
		c-2.1,0-3.1,2-3.2,3.4H314z"/>
	<path d="M328.7,76.8v5h0.5l4.4-5h2.6l-5.1,5.3c1.9,0.2,3,1.4,3.9,3.5c0.3,0.8,0.7,1.9,1.3,2.8H334c-0.3-0.5-0.7-1.4-1.1-2.4
		c-0.8-1.9-1.9-2.7-3.8-2.7h-0.4v5.1h-2.1V76.8H328.7z"/>
	<path d="M349.9,82.5c0,4.3-3,6.2-5.8,6.2c-3.1,0-5.6-2.3-5.6-6c0-3.9,2.5-6.2,5.8-6.2C347.6,76.6,349.9,79,349.9,82.5z M340.7,82.7
		c0,2.5,1.5,4.5,3.5,4.5c2,0,3.5-1.9,3.5-4.5c0-2-1-4.5-3.5-4.5S340.7,80.5,340.7,82.7z"/>
	<path d="M354.1,76.8h2.6l2.1,5.9c0.3,0.9,0.8,2.3,1.1,3.2h0c0.3-0.9,0.9-2.7,1.4-4l1.9-5.1h2.6l0.8,11.6h-2l-0.3-5.5
		c-0.1-1.3-0.2-2.7-0.2-4.2H364c-0.3,1.1-0.6,2-1.3,3.8l-2.2,5.9H359l-2.1-5.7c-0.4-1.1-0.9-2.8-1.1-3.9h-0.1c0,1.4-0.1,2.9-0.2,4.2
		l-0.3,5.5h-1.9L354.1,76.8z"/>
	<path d="M380.3,76.8v11.6h-2.1v-9.9h-5.4v9.9h-2.1V76.8H380.3z"/>
	<path d="M395.7,82.5c0,4.3-3,6.2-5.8,6.2c-3.1,0-5.6-2.3-5.6-6c0-3.9,2.5-6.2,5.8-6.2C393.4,76.6,395.7,79,395.7,82.5z M386.5,82.7
		c0,2.5,1.5,4.5,3.5,4.5c2,0,3.5-1.9,3.5-4.5c0-2-1-4.5-3.5-4.5S386.5,80.5,386.5,82.7z"/>
	<path d="M401.8,76.8v4.7h5.5v-4.7h2.1v11.6h-2.1v-5.3h-5.5v5.3h-2.1V76.8H401.8z"/>
	<path d="M415.5,83c0,2.9,1.9,4,4,4c1.5,0,2.4-0.3,3.2-0.6l0.4,1.5c-0.7,0.3-2,0.7-3.9,0.7c-3.6,0-5.7-2.3-5.7-5.9
		c0-3.5,2.1-6.3,5.5-6.3c3.8,0,4.8,3.3,4.8,5.5c0,0.4,0,0.8-0.1,1L415.5,83L415.5,83z M421.7,81.5c0-1.3-0.5-3.4-2.9-3.4
		c-2.1,0-3.1,2-3.2,3.4H421.7z"/>
	<path d="M429.8,76.8v4.7h5.5v-4.7h2.1v11.6h-2.1v-5.3h-5.5v5.3h-2.1V76.8H429.8z"/>
	<path d="M450.1,76.8v1.7h-3.6v9.9h-2.1v-9.9h-3.6v-1.7H450.1z"/>
	<path d="M455.5,76.8v4c0.5-0.1,1.1-0.1,1.9-0.1c2.5,0,5,1,5,3.9c0,1.2-0.5,2.1-1.2,2.7c-1.3,1.1-3.1,1.3-4.7,1.3
		c-1.2,0-2.3-0.1-3.1-0.2V76.8H455.5z M455.5,87c0.4,0.1,0.9,0.1,1.5,0.1c1.6,0,3.4-0.7,3.4-2.5c0-1.9-1.7-2.4-3.3-2.4
		c-0.6,0-1.1,0.1-1.6,0.1L455.5,87L455.5,87z M465.9,76.8v11.6h-2.1V76.8H465.9z"/>
</g>
</svg>
